<?xml version="1.0" standalone="no"?><!DOCTYPE svg PUBLIC "-//W3C//DTD SVG 1.1//EN" "http://www.w3.org/Graphics/SVG/1.1/DTD/svg11.dtd"><svg t="1588123606789" class="icon" viewBox="0 0 1024 1024" version="1.1" xmlns="http://www.w3.org/2000/svg" p-id="968" xmlns:xlink="http://www.w3.org/1999/xlink" width="200" height="200"><defs><style type="text/css"></style></defs><path d="M413.456067 1002.148954c-22.279498-4.712971-56.555649-14.995816-75.835983-23.136402-41.559833-16.709623-91.260251-43.702092-91.260251-49.271966 0-2.142259-5.569874-6.85523-12.425105-10.282845-26.992469-14.138912-81.83431-71.979916-113.539749-119.966528-17.138075-26.135565-32.990795-52.27113-34.704602-58.269456s-7.712134-19.708787-13.282009-30.848535c-12.425105-23.993305-20.994142-54.413389-32.562343-112.682845-15.424268-77.978243-6.85523-183.805858 21.422594-263.497908 31.705439-88.261088 91.260251-172.237657 158.955649-224.080335 13.282008-9.854393 26.564017-21.422594 29.991632-26.135565 8.569038-11.568201 86.118828-47.558159 129.82092-59.983264 41.131381-11.996653 122.108787-22.70795 134.105439-17.994979 6.85523 2.570711 7.283682 10.711297 5.569875 123.822595-1.285356 102.828452-0.856904 114.396653 2.999163 77.978242 5.141423-45.844351 10.711297-60.840167 41.131381-105.399163 76.692887-113.111297 252.358159-130.249372 346.617573-33.847699 58.697908 60.411715 78.406695 107.969874 78.835146 190.661088 0.428452 38.989121-1.285356 51.842678-9.854393 74.97908-5.569874 15.424268-11.568201 29.991632-13.282008 32.133891-1.713808 2.570711-4.284519 9.854393-5.998327 16.281171-2.999163 11.996653-76.692887 92.974059-84.833472 92.974059-2.570711 0-8.99749 3.856067-14.567364 8.140586-5.998326 4.712971-20.56569 10.711297-32.990795 14.138912-20.994142 5.141423-17.566527 5.569874 69.837657 7.712134l92.117154 2.142259-0.856903 33.847699c-2.142259 90.831799-39.846025 197.087866-97.68703 275.066109-34.276151 45.844351-52.27113 65.124686-83.548117 88.689539-12.853556 9.854393-27.849372 21.851046-32.990795 26.564017-11.996653 11.568201-81.83431 45.844351-116.967364 57.841004-69.409205 23.564854-167.524686 28.277824-244.217573 12.425105z m132.820084-252.786611c14.995816-2.142259 28.706276-5.998326 29.991631-7.712134 1.285356-2.142259 6.85523-5.141423 12.853557-6.85523 23.136402-6.85523 63.410879-32.562343 86.975732-55.698745 13.282008-13.71046 24.421757-26.135565 24.421757-28.277824 0-1.713808 5.998326-13.71046 13.282009-26.135565 13.71046-23.564854 29.56318-76.692887 29.56318-99.829289 0-13.282008-0.856904-14.138912-20.137239-16.709623-29.56318-4.284519-65.98159-15.85272-77.978242-24.850209-5.569874-4.284519-12.425105-7.712134-15.85272-7.712134-7.283682 0-74.979079-73.265272-83.548117-90.831799-19.708787-40.702929-24.850209-55.698745-29.991632-85.690377l-5.569875-33.419247h-14.567364c-16.281172 0-53.556485 8.569038-56.555648 13.282009-1.285356 1.713808-14.995816 8.99749-30.420084 16.281171-30.420084 14.567364-82.691213 58.697908-87.832636 74.550628-1.713808 5.141423-5.998326 14.138912-10.282845 20.137238-23.993305 34.704603-36.41841 114.825105-26.135565 168.810042 7.283682 39.417573 36.41841 95.116318 64.696235 122.965691 22.70795 23.136402 76.692887 55.270293 92.117154 55.270292 3.427615 0 6.426778 1.713808 6.426779 3.856067 0 4.284519 35.133054 11.996653 57.841004 12.853557 7.283682 0 25.278661-1.713808 40.702929-4.284519z m29.991631-470.868619c0-4.712971-1.713808-8.569038-4.284518-8.569038-2.142259 0-4.284519 3.856067-4.284519 8.569038s2.142259 8.569038 4.284519 8.569038c2.570711 0 4.284519-3.856067 4.284518-8.569038z" fill="#078F61" p-id="969"></path><path d="M231.364017 917.315481c-23.136402-14.567364-47.129707-37.703766-38.989122-37.703766 3.856067 0 12.853556 6.426778 19.280335 14.138913 6.85523 7.712134 13.282008 13.282008 14.138912 11.996652 1.285356-0.856904 6.426778 2.999163 11.996653 8.99749 11.996653 12.853556 10.711297 13.282008-6.426778 2.570711zM811.059414 897.178243c6.85523-12.425105 38.560669-41.559833 46.272804-42.845189 8.140586-1.285356-18.423431 27.849372-38.56067 41.988285-11.139749 8.569038-11.996653 8.569038-7.712134 0.856904zM153.814226 847.477824c-9.425941-10.711297-23.136402-31.705439-23.136402-35.561506 0-6.85523 29.56318 25.707113 31.276988 34.704603 2.142259 12.425105 2.142259 12.425105-8.140586 0.856903zM867.615063 841.479498c0-7.712134 16.709623-31.276987 25.278661-35.989958 5.141423-2.570711 8.99749-8.569038 8.997489-13.282009s2.142259-7.283682 4.284519-5.998326c2.570711 1.285356 4.284519 0 4.284519-3.427615s2.999163-8.99749 7.283682-11.996653c6.426778-5.569874 6.426778-5.141423 0 6.85523-3.427615 7.283682-15.424268 24.421757-26.564017 38.56067-23.993305 30.848536-23.564854 30.420084-23.564853 25.278661zM657.67364 696.23431c5.998326-6.426778 14.138912-13.282008 18.423431-15.85272 6.85523-3.427615 7.283682-2.999163 2.999163 4.712971-2.570711 4.712971-10.711297 11.996653-18.423431 15.852719l-13.71046 7.283682 10.711297-11.996652zM713.372385 507.287029c-24.850209-4.712971-58.697908-16.709623-68.123849-23.993305-5.569874-4.284519-12.425105-7.712134-15.85272-7.712134-7.283682 0-74.979079-73.265272-83.548117-90.831799-19.708787-40.702929-24.850209-55.698745-29.991632-85.690377-4.712971-28.706276-6.85523-33.419247-14.138912-33.847699-8.569038 0-8.569038-0.428452 0.856904-4.71297 6.85523-3.427615 9.425941-8.569038 9.854393-20.137239l0.428452-15.424268 3.856067 12.853557c2.570711 8.99749 2.999163 3.427615 2.142259-19.280335-0.856904-19.708787-0.428452-27.849372 1.713808-21.422594 2.999163 8.99749 3.427615 7.712134 3.856067-7.712134 0.856904-31.276987 39.846025-97.687029 75.835983-128.535565 89.117992-76.264435 231.364017-72.83682 310.199163 7.712134 58.697908 60.411715 78.406695 108.398326 78.835146 190.661088 0 51.842678-5.141423 73.265272-34.704602 133.676988-6.85523 14.138912-74.122176 82.691213-81.405858 82.691213-2.570711 0-6.85523 2.999163-9.854393 6.426778-13.282008 15.85272-111.39749 32.562343-149.958159 25.278661z m-137.104603-228.793305c0-4.712971-1.713808-8.569038-4.284518-8.569038-2.142259 0-4.284519 3.856067-4.284519 8.569038s2.142259 8.569038 4.284519 8.569038c2.570711 0 4.284519-3.856067 4.284518-8.569038zM247.645188 87.404184c5.141423-5.998326 14.995816-14.138912 21.422594-17.566527 11.996653-5.998326 11.996653-5.998326 7.283682 2.999163-4.712971 8.569038-28.277824 25.707113-35.133054 25.707113-2.142259 0 0.856904-5.141423 6.426778-11.139749z" fill="#7B7A7A" p-id="970"></path><path d="M231.364017 917.315481c-23.136402-14.567364-47.129707-37.703766-38.989122-37.703766 3.856067 0 12.853556 6.426778 19.280335 14.138913 6.85523 7.712134 13.282008 13.282008 14.138912 11.996652 1.285356-0.856904 6.426778 2.999163 11.996653 8.99749 11.996653 12.853556 10.711297 13.282008-6.426778 2.570711zM811.059414 897.178243c6.85523-12.425105 38.560669-41.559833 46.272804-42.845189 8.140586-1.285356-18.423431 27.849372-38.56067 41.988285-11.139749 8.569038-11.996653 8.569038-7.712134 0.856904zM153.814226 847.477824c-9.425941-10.711297-23.136402-31.705439-23.136402-35.561506 0-6.85523 29.56318 25.707113 31.276988 34.704603 2.142259 12.425105 2.142259 12.425105-8.140586 0.856903zM867.615063 841.479498c0-7.712134 16.709623-31.276987 25.278661-35.989958 5.141423-2.570711 8.99749-8.569038 8.997489-13.282009s2.142259-7.283682 4.284519-5.998326c2.570711 1.285356 4.284519 0 4.284519-3.427615s2.999163-8.99749 7.283682-11.996653c6.426778-5.569874 6.426778-5.141423 0 6.85523-3.427615 7.283682-15.424268 24.421757-26.564017 38.56067-23.993305 30.848536-23.564854 30.420084-23.564853 25.278661zM657.67364 696.23431c5.998326-6.426778 14.138912-13.282008 18.423431-15.85272 6.85523-3.427615 7.283682-2.999163 2.999163 4.712971-2.570711 4.712971-10.711297 11.996653-18.423431 15.852719l-13.71046 7.283682 10.711297-11.996652zM713.372385 507.287029c-24.850209-4.712971-58.697908-16.709623-68.123849-23.993305-5.569874-4.284519-12.425105-7.712134-15.85272-7.712134-7.283682 0-74.979079-73.265272-83.548117-90.831799-19.708787-40.702929-24.850209-55.698745-29.991632-85.690377-4.712971-28.706276-6.85523-33.419247-14.138912-33.847699-8.569038 0-8.569038-0.428452 0.856904-4.71297 6.85523-3.427615 9.425941-8.569038 9.854393-20.137239l0.428452-15.424268 3.856067 12.853557c2.570711 8.99749 2.999163 3.427615 2.142259-19.280335-0.856904-19.708787-0.428452-27.849372 1.713808-21.422594 2.999163 8.99749 3.427615 7.712134 3.856067-7.712134 0.856904-27.849372 29.991632-80.977406 64.267782-116.967364 19.280335-20.137238 46.272803-38.132218 56.9841-38.132217 4.712971 0 6.85523-1.713808 5.569875-4.284519-1.285356-2.142259-0.428452-4.284519 1.713807-4.284519 6.85523 0 5.569874 11.139749-1.285355 16.709623-4.712971 3.856067-6.426778 3.856067-8.140586-0.428451s-3.427615-4.284519-6.85523 0.856903c-6.426778 8.99749-5.998326 14.995816 0.856904 8.99749 3.427615-2.570711 6.85523-3.856067 7.712134-2.570711 1.285356 0.856904 20.994142 2.570711 43.702092 3.427615 30.420084 1.285356 43.702092 3.427615 49.271966 8.569037 11.996653 11.139749 40.274477 21.422594 43.27364 16.281172 5.141423-8.569038 31.705439 5.141423 55.698745 28.277824 12.425105 11.996653 28.277824 26.564017 35.133054 31.705439s12.425105 11.568201 12.425105 14.138913 5.569874 11.139749 12.425105 18.42343c7.283682 8.140586 14.995816 23.993305 18.851883 38.56067 3.427615 13.71046 7.712134 28.706276 9.854393 32.990795 2.142259 5.998326 1.713808 7.283682-1.713808 5.141423-2.999163-1.713808-5.141423-0.856904-5.141422 1.285355 0 2.570711 2.999163 4.712971 6.85523 4.712971 4.712971 0 5.998326 2.570711 3.856067 8.997489-2.142259 6.85523-1.713808 8.140586 2.142259 5.998327 4.284519-2.570711 4.712971-0.428452 2.570711 7.712134-1.285356 5.998326-0.428452 11.568201 1.713808 12.425104 2.570711 0.856904 5.569874 20.137238 6.426778 43.702092 2.142259 40.702929 2.142259 42.416736-8.569037 52.27113-11.568201 10.711297-13.282008 16.709623-6.426779 20.994142 2.142259 1.285356 2.999163 0 1.713808-3.427615s0-7.712134 2.999163-9.854393c3.427615-1.713808 4.284519-1.285356 2.142259 1.713807-1.713808 2.999163-0.856904 5.141423 1.713808 5.141423s6.426778-4.712971 8.140586-10.282845c2.142259-5.569874 7.283682-11.139749 11.139749-12.853557 5.569874-2.142259 6.426778-0.856904 3.856067 7.283682-1.285356 5.141423-6.426778 14.138912-10.282845 20.137239-11.139749 15.424268-71.123013 72.83682-75.835984 72.83682-2.570711 0-6.85523 2.999163-9.854393 6.426778-13.282008 15.85272-111.39749 32.562343-149.958159 25.278661z m225.794142-178.235983c-0.856904-5.569874-1.713808-1.285356-1.713807 9.425941s0.856904 14.995816 1.713807 9.854394c0.856904-5.569874 0.856904-14.138912 0-19.280335z m-362.898745-50.557322c0-4.712971-1.713808-8.569038-4.284518-8.569038-2.142259 0-4.284519 3.856067-4.284519 8.569038s2.142259 8.569038 4.284519 8.569038c2.570711 0 4.284519-3.856067 4.284518-8.569038zM249.787448 86.118828c6.426778-6.85523 15.85272-14.567364 21.422594-17.566527 9.425941-4.712971 9.854393-4.284519 5.141422 4.284519-4.284519 8.140586-28.277824 25.707113-35.133054 25.707113-1.713808 0 2.142259-5.569874 8.569038-12.425105zM902.748117 63.839331c-2.999163-4.712971-7.283682-7.283682-9.425941-5.998327-2.570711 1.713808-5.569874-0.428452-6.85523-3.856067-1.285356-3.856067-4.284519-5.998326-5.998327-4.71297-2.142259 1.285356-8.99749-2.570711-15.424268-8.569038-15.424268-14.567364-8.99749-13.71046 15.85272 2.570711 20.994142 13.282008 32.133891 23.993305 29.134728 27.420921-1.285356 0.856904-4.284519-2.142259-7.283682-6.85523z" fill="#55A58A" p-id="971"></path><path d="M713.372385 507.287029c-24.850209-4.712971-58.697908-16.709623-68.123849-23.993305-5.569874-4.284519-12.425105-7.712134-15.85272-7.712134-8.140586 0-75.407531-74.122176-84.405021-92.974059-4.284519-8.99749-10.711297-21.851046-14.138912-28.706276-7.712134-15.424268-18.851883-66.410042-18.851883-86.118828 0-8.140586 2.142259-15.85272 4.712971-17.566527 3.427615-1.713808 4.284519-13.282008 2.999163-33.419247-1.285356-17.566527-0.856904-25.707113 0.856904-19.708787 2.999163 8.99749 3.427615 7.712134 3.856067-7.712134 0.856904-27.849372 29.991632-80.977406 64.267782-116.967364 19.280335-20.137238 46.272803-38.132218 56.9841-38.132217 4.712971 0 6.85523-1.713808 5.569875-4.284519-1.285356-2.142259-0.428452-4.284519 1.713807-4.284519 6.85523 0 5.569874 11.139749-1.285355 16.709623-4.712971 3.856067-6.426778 3.856067-8.140586-0.428451s-3.427615-4.284519-6.85523 0.856903c-6.426778 8.99749-5.998326 14.995816 0.856904 8.99749 3.427615-2.570711 6.85523-3.856067 7.712134-2.570711 1.285356 0.856904 20.994142 2.570711 43.702092 3.427615 30.420084 1.285356 43.702092 3.427615 49.271966 8.569037 11.996653 11.139749 40.274477 21.422594 43.27364 16.281172 5.141423-8.569038 31.705439 5.141423 55.698745 28.277824 12.425105 11.996653 28.277824 26.564017 35.133054 31.705439s12.425105 11.568201 12.425105 14.138913 5.569874 11.139749 12.425105 18.42343c7.283682 8.140586 14.995816 23.993305 18.851883 38.56067 3.427615 13.71046 7.712134 28.706276 9.854393 32.990795 2.142259 5.998326 1.713808 7.283682-1.713808 5.141423-2.999163-1.713808-5.141423-0.856904-5.141422 1.285355 0 2.570711 2.999163 4.712971 6.85523 4.712971 4.712971 0 5.998326 2.570711 3.856067 8.997489-2.142259 6.85523-1.713808 8.140586 2.142259 5.998327 4.284519-2.570711 4.712971-0.428452 2.570711 7.712134-1.285356 5.998326-0.428452 11.568201 1.713808 12.425104 2.570711 0.856904 5.569874 20.137238 6.426778 43.702092 2.142259 40.702929 2.142259 42.416736-8.569037 52.27113-11.568201 10.711297-13.282008 16.709623-6.426779 20.994142 2.142259 1.285356 2.999163 0 1.713808-3.427615s0-7.712134 2.999163-9.854393c3.427615-1.713808 4.284519-1.285356 2.142259 1.713807-1.713808 2.999163-0.856904 5.141423 1.713808 5.141423s6.426778-4.712971 8.140586-10.282845c2.142259-5.569874 7.283682-11.139749 11.139749-12.853557 5.569874-2.142259 6.426778-0.856904 3.856067 7.283682-1.285356 5.141423-6.426778 14.138912-10.282845 20.137239-11.139749 15.424268-71.123013 72.83682-75.835984 72.83682-2.570711 0-6.85523 2.999163-9.854393 6.426778-13.282008 15.85272-111.39749 32.562343-149.958159 25.278661z m225.794142-178.235983c-0.856904-5.569874-1.713808-1.285356-1.713807 9.425941s0.856904 14.995816 1.713807 9.854394c0.856904-5.569874 0.856904-14.138912 0-19.280335z m-362.898745-50.557322c0-4.712971-1.713808-8.569038-4.284518-8.569038-2.142259 0-4.284519 3.856067-4.284519 8.569038s2.142259 8.569038 4.284519 8.569038c2.570711 0 4.284519-3.856067 4.284518-8.569038zM902.748117 63.839331c-2.999163-4.712971-7.283682-7.283682-9.425941-5.998327-2.570711 1.713808-5.569874-0.428452-6.85523-3.856067-1.285356-3.856067-4.284519-5.998326-5.998327-4.71297-2.142259 1.285356-8.99749-2.570711-15.424268-8.569038-15.424268-14.567364-8.99749-13.71046 15.85272 2.570711 20.994142 13.282008 32.133891 23.993305 29.134728 27.420921-1.285356 0.856904-4.284519-2.142259-7.283682-6.85523z" fill="#9C9A99" p-id="972"></path><path d="M721.941423 503.430962c0-3.427615-2.999163-6.426778-6.855231-6.426778-3.427615 0-5.569874-1.713808-4.284518-3.856067 1.285356-1.713808 7.712134-2.570711 13.71046-1.285355 8.140586 1.285356 10.711297 0.428452 8.569038-2.999164-1.713808-2.570711-0.856904-4.712971 1.285355-4.71297 2.570711 0 4.712971-2.142259 4.712971-4.712971 0-5.569874 10.711297-16.709623 16.709623-16.709624 2.570711 0 7.712134-5.141423 11.996653-11.5682 4.284519-6.85523 9.854393-13.282008 12.425105-14.995816 4.712971-2.999163 22.70795-38.560669 29.134728-56.555649 1.713808-4.284519 3.856067-6.85523 5.569874-5.141422 2.999163 2.999163-13.71046 44.558996-29.134728 70.69456-5.998326 10.711297-18.423431 23.136402-38.132217 38.56067l-10.711298 8.569037 14.995816 0.428452c8.140586 0.428452 12.425105 1.713808 9.854394 2.999163-9.425941 3.427615-5.998326 8.99749 6.426778 11.139749 6.426778 0.856904-1.285356 2.142259-17.138075 2.570712-23.136402 0.428452-29.134728-0.856904-29.134728-5.998327zM780.639331 502.574059c-1.713808-1.285356-2.999163-4.712971-2.999164-7.283682 0-2.999163 1.285356-2.999163 3.427615 0.428451 1.713808 2.570711 8.99749 5.569874 15.85272 6.855231l12.853557 1.713807-13.282009 0.856904c-7.283682 0-14.567364-0.856904-15.852719-2.570711zM679.096234 497.004184c0-2.142259 3.856067-4.284519 8.99749-4.284519 4.712971 0 7.283682 2.142259 5.998326 4.284519-1.285356 2.570711-5.569874 4.284519-8.997489 4.284519s-5.998326-1.713808-5.998327-4.284519z" fill="#C9CAC9" p-id="973"></path><path d="M664.100418 493.576569c-4.712971-1.285356-14.138912-6.426778-21.851046-11.996653-7.283682-5.569874-14.138912-8.99749-15.424267-8.140585-3.427615 3.856067-73.265272-72.408368-80.977406-88.68954-3.856067-7.712134-9.425941-19.708787-12.853557-26.992469-2.999163-6.85523-6.426778-14.138912-7.283682-16.281171-0.856904-1.713808 1.285356-1.713808 5.141423-0.428452s6.85523 6.426778 6.85523 10.711297 1.713808 8.140586 3.427615 8.140586 2.570711-6.85523 1.713808-15.424268c-1.285356-10.711297-2.999163-13.71046-5.569875-9.854393-4.712971 7.283682-4.712971 2.999163 0-20.994143 2.142259-9.854393 2.142259-19.280335 0-20.56569s-3.856067 2.570711-3.856067 8.569038c0 11.996653-7.283682 18.423431-13.71046 11.996652-2.570711-2.570711-1.713808-6.426778 2.570711-10.711297 3.856067-3.856067 6.85523-8.569038 6.85523-11.139749s2.142259-4.712971 4.712971-4.71297c2.999163 0 3.856067-3.856067 2.142259-10.282846s-0.428452-11.139749 2.999164-12.425104c3.856067-1.713808 3.856067-2.570711-0.428452-2.570712-2.999163-0.428452-9.425941 1.713808-14.567364 4.284519-4.712971 2.570711-8.99749 3.856067-9.854394 2.999163-3.427615-3.427615 3.427615-20.56569 6.855231-17.994979 2.142259 1.285356 3.856067 0 3.856066-2.999163s1.285356-3.856067 2.570712-2.570711c1.713808 1.713808 0.428452 5.569874-2.570712 9.425941-6.426778 7.283682-2.999163 8.140586 8.99749 2.14226 4.284519-2.570711 8.140586-8.569038 8.140586-12.853557 0-5.141423 2.999163-8.569038 6.85523-8.569037 4.284519 0 5.998326 2.570711 4.284519 7.712133-0.856904 3.856067-3.427615 15.424268-4.712971 25.707113-2.142259 14.138912-1.713808 17.994979 3.427615 17.99498 9.425941 0 16.709623-22.279498 15.424268-47.558159-0.856904-18.423431 0-22.70795 6.426778-25.278662 3.856067-1.285356 7.283682-3.856067 7.283682-5.569874-1.285356-10.711297 0.428452-12.425105 9.854393-9.854393 5.998326 1.285356 11.996653 0.428452 13.282009-2.14226 1.713808-2.142259 7.712134-5.998326 13.71046-8.569037 5.569874-2.142259 8.99749-5.569874 7.712134-8.140586-1.713808-2.570711 2.570711-4.284519 9.425941-4.284519 9.425941 0 10.711297 0.856904 5.569875 4.712971-5.141423 3.427615-4.712971 3.856067 2.999163 1.713807 18.851883-5.141423 58.269456-3.427615 61.697071 3.427615 2.142259 3.856067 7.712134 5.569874 14.567364 3.856067 5.998326-0.856904 13.71046 0.856904 17.566527 3.856067s10.711297 7.712134 15.85272 10.282845c4.712971 2.142259 10.711297 8.140586 13.282008 12.425105 2.570711 4.712971 9.425941 12.853556 14.995816 18.423431 19.708787 18.851883 35.561506 53.128033 33.419247 71.551464-1.285356 12.853556-1.713808 12.853556-4.712971-4.71297-2.999163-15.85272-11.139749-28.706276-28.277824-46.272804-2.570711-2.142259-13.71046-13.71046-24.850209-24.850209-15.85272-16.281172-22.279498-20.56569-31.276987-19.280335-5.998326 0.856904-13.282008-0.856904-16.281172-3.856067-2.999163-3.427615-17.566527-5.998326-38.132218-6.426778-50.12887-1.285356-57.841004-0.428452-63.410878 6.85523-2.570711 3.856067-7.712134 6.85523-11.568201 6.85523-6.85523 0-20.137238 20.137238-20.137239 30.420084 0 2.999163 5.569874 0.428452 11.996653-5.998326s16.709623-11.568201 22.70795-11.568201c5.569874 0 14.138912-2.999163 18.423431-6.426778 11.139749-8.569038 57.841004-8.569038 73.693724 0 6.85523 3.427615 15.85272 6.426778 20.137238 6.426778 3.856067 0 13.282008 5.998326 20.994143 12.853556 7.283682 7.283682 14.995816 12.853556 16.709623 12.853557 2.142259 0 3.856067 2.142259 3.856067 4.712971s3.856067 9.854393 8.140586 16.281171c20.56569 28.706276 20.137238 131.106276 0 145.245188-4.712971 3.427615-7.712134 8.569038-6.426779 11.568201 1.285356 3.427615-11.139749 12.425105-31.705439 23.993306-18.423431 10.282845-32.990795 19.708787-31.705439 21.422594 0.856904 1.713808-4.284519 2.570711-11.996653 2.142259-10.282845-0.428452-14.138912 1.713808-15.85272 8.140586-1.713808 5.998326-5.141423 8.140586-11.139749 7.283682z m-87.832636-215.082845c0-4.712971-1.713808-8.569038-4.284518-8.569038-2.142259 0-4.284519 3.856067-4.284519 8.569038s2.142259 8.569038 4.284519 8.569038c2.570711 0 4.284519-3.856067 4.284518-8.569038zM813.201674 338.476987c0-10.711297 0.856904-14.995816 1.713807-9.425941 0.856904 5.141423 0.856904 13.71046 0 19.280335-0.856904 5.141423-1.713808 0.856904-1.713807-9.854394z" fill="#C9CAC9" p-id="974"></path></svg>